<?xml version="1.0" encoding="utf-8"?>
<!-- Generator: Adobe Illustrator 16.0.3, SVG Export Plug-In . SVG Version: 6.00 Build 0)  -->
<!DOCTYPE svg PUBLIC "-//W3C//DTD SVG 1.0//EN" "http://www.w3.org/TR/2001/REC-SVG-20010904/DTD/svg10.dtd">
<svg version="1.0" id="Capa_4" xmlns="http://www.w3.org/2000/svg" xmlns:xlink="http://www.w3.org/1999/xlink" x="0px" y="0px"
	 width="1246.438px" height="365px" viewBox="0 0 1246.438 365" enable-background="new 0 0 1246.438 365" xml:space="preserve">
<polygon fill="#56A2CB" points="92.22,120.934 91.443,165.626 228.382,87.233 228.382,42.048 "/>
<polygon fill="#1B76B0" points="227.606,41.353 228.382,87.233 364.795,166.627 365.684,120.35 "/>
<polygon fill="#1B76B0" points="228.382,119.177 228.382,164.208 364.99,243.895 365.879,197.618 "/>
<polygon fill="#1B76B0" points="91.888,197.91 91.499,243.339 230.162,324.343 230.162,277.491 "/>
<polygon fill="#1B76B0" points="91.429,120.391 91.04,165.82 229.703,246.695 229.703,199.972 "/>
<polygon fill="#56A2CB" points="229.703,199.972 229.703,246.194 366.211,166.321 365.684,120.35 "/>
<polygon fill="#56A2CB" points="230.162,277.491 230.162,324.343 366.602,244.609 366.769,198.192 "/>
<polygon fill="#56A2CB" points="91.444,197.367 91.444,242.755 228.382,164.208 228.382,119.177 "/>
<g>
	<rect x="429.15" y="134.117" fill="none" width="740.068" height="99.548"/>
	<path d="M483.312,139.308v10.502h-31.86v24.898h28.32v10.384h-28.32v25.842h31.86v10.502H438v-82.128H483.312z"/>
	<path d="M496.88,175.062c0-5.505,2.319-10.167,6.962-13.983c4.641-3.815,10.738-5.723,18.29-5.723c7.552,0,13.55,1.87,17.995,5.605
		c4.443,3.737,6.824,8.832,7.139,15.281H533.46c-0.236-3.225-1.357-5.742-3.363-7.552c-2.006-1.809-4.82-2.714-8.437-2.714
		c-3.62,0-6.452,0.808-8.496,2.419c-2.047,1.613-3.068,3.737-3.068,6.372c0,2.637,1.298,4.702,3.894,6.195
		c2.596,1.496,5.762,2.596,9.499,3.304c3.736,0.708,7.473,1.575,11.21,2.596c3.735,1.023,6.903,2.891,9.499,5.605
		c2.596,2.714,3.894,6.354,3.894,10.915c0,5.664-2.38,10.266-7.139,13.806c-4.761,3.54-10.876,5.31-18.349,5.31
		c-7.475,0-13.531-1.809-18.172-5.428c-4.643-3.617-7.198-8.771-7.67-15.458h13.924c0.236,3.227,1.416,5.744,3.54,7.552
		c2.124,1.811,5.015,2.714,8.673,2.714c3.658,0,6.567-0.806,8.732-2.419c2.163-1.611,3.245-3.756,3.245-6.431
		c0-2.673-1.298-4.758-3.894-6.254c-2.596-1.493-5.764-2.614-9.499-3.363c-3.737-0.747-7.475-1.611-11.21-2.596
		c-3.737-0.982-6.903-2.773-9.499-5.369C498.179,182.85,496.88,179.389,496.88,175.062z"/>
	<path d="M598.95,155.355c8.732,0,16.007,3.088,21.83,9.263c5.821,6.176,8.732,14.201,8.732,24.072
		c0,9.874-2.932,17.977-8.791,24.308c-5.861,6.333-13.118,9.499-21.771,9.499c-5.115,0-9.599-1.198-13.452-3.599
		c-3.855-2.398-6.923-5.605-9.204-9.617v43.07h-13.452v-95.934h13.452v11.564c2.202-3.776,5.251-6.824,9.145-9.145
		C589.333,156.517,593.835,155.355,598.95,155.355z M609.924,204.739c3.933-4.051,5.9-9.42,5.9-16.107
		c0-6.685-1.947-11.957-5.841-15.812c-3.894-3.853-8.537-5.782-13.924-5.782c-5.389,0-10.03,1.967-13.924,5.9
		c-3.894,3.935-5.841,9.245-5.841,15.93c0,6.687,1.947,12.018,5.841,15.989c3.894,3.973,8.514,5.959,13.865,5.959
		C601.349,210.815,605.99,208.791,609.924,204.739z"/>
	<path d="M670.222,222.498c-9.44,0-17.11-3.068-23.01-9.204c-5.9-6.136-8.85-14.278-8.85-24.426s2.988-18.27,8.968-24.367
		c5.978-6.095,13.707-9.145,23.187-9.145c9.479,0,17.169,2.932,23.069,8.791c5.9,5.861,8.85,13.511,8.85,22.951
		c0,2.282-0.159,4.406-0.472,6.372h-49.796c0.313,5.428,2.143,9.735,5.487,12.921c3.343,3.186,7.532,4.779,12.567,4.779
		c7.316,0,12.467-3.027,15.458-9.086h14.514c-1.967,5.979-5.546,10.876-10.738,14.691
		C684.264,220.591,677.851,222.498,670.222,222.498z M683.083,171.462c-3.462-3.186-7.67-4.779-12.626-4.779
		s-9.106,1.593-12.449,4.779c-3.345,3.186-5.251,7.455-5.723,12.803h36.108C688.314,178.917,686.544,174.648,683.083,171.462z"/>
	<path d="M720.016,213.293c-5.9-6.136-8.85-14.258-8.85-24.367c0-10.107,2.968-18.231,8.909-24.367
		c5.939-6.136,13.588-9.204,22.951-9.204c7.866,0,14.376,1.87,19.529,5.605c5.151,3.737,8.633,9.068,10.443,15.989h-14.515
		c-2.438-6.844-7.592-10.266-15.458-10.266c-5.507,0-9.893,1.947-13.156,5.841c-3.266,3.894-4.897,9.342-4.897,16.343
		c0,7.002,1.632,12.469,4.897,16.402c3.264,3.935,7.649,5.9,13.156,5.9c7.788,0,12.939-3.422,15.458-10.266h14.515
		c-1.889,6.608-5.429,11.859-10.62,15.753c-5.192,3.894-11.644,5.841-19.353,5.841C733.586,222.498,725.917,219.43,720.016,213.293z
		"/>
	<path d="M817.956,167.392h-15.813v35.99c0,2.439,0.569,4.189,1.711,5.251c1.14,1.062,3.087,1.593,5.841,1.593h8.261v11.21h-10.62
		c-12.509,0-18.763-6.018-18.763-18.054v-35.99h-7.67v-10.974h7.67v-16.166h13.57v16.166h15.813V167.392z"/>
	<path d="M843.796,156.417v11.328c4.169-8.26,10.659-12.39,19.471-12.39v13.924h-3.423c-5.271,0-9.263,1.338-11.977,4.012
		c-2.714,2.675-4.071,7.316-4.071,13.924v34.22h-13.452v-65.018H843.796z"/>
	<path d="M903.917,222.498c-9.48,0-17.287-3.086-23.423-9.263c-6.137-6.174-9.204-14.278-9.204-24.308
		c0-10.03,3.165-18.132,9.499-24.308c6.331-6.175,14.219-9.263,23.658-9.263c9.44,0,17.326,3.088,23.659,9.263
		c6.332,6.176,9.499,14.259,9.499,24.249c0,9.991-3.245,18.094-9.734,24.308C921.38,219.391,913.395,222.498,903.917,222.498z
		 M917.899,205.27c3.933-3.933,5.9-9.399,5.9-16.402c0-7.001-1.908-12.449-5.723-16.343c-3.817-3.894-8.438-5.841-13.865-5.841
		c-5.429,0-9.991,1.947-13.688,5.841c-3.698,3.894-5.546,9.363-5.546,16.402c0,7.041,1.809,12.508,5.428,16.402
		c3.618,3.894,8.122,5.841,13.512,5.841C909.303,211.169,913.964,209.204,917.899,205.27z"/>
	<path d="M947.988,175.062c0-5.505,2.319-10.167,6.962-13.983c4.641-3.815,10.737-5.723,18.29-5.723
		c7.552,0,13.55,1.87,17.995,5.605c4.443,3.737,6.823,8.832,7.139,15.281h-13.806c-0.236-3.225-1.357-5.742-3.363-7.552
		c-2.006-1.809-4.819-2.714-8.438-2.714c-3.619,0-6.451,0.808-8.496,2.419c-2.046,1.613-3.067,3.737-3.067,6.372
		c0,2.637,1.298,4.702,3.894,6.195c2.597,1.496,5.762,2.596,9.499,3.304c3.735,0.708,7.473,1.575,11.21,2.596
		c3.735,1.023,6.903,2.891,9.499,5.605c2.597,2.714,3.895,6.354,3.895,10.915c0,5.664-2.381,10.266-7.14,13.806
		c-4.76,3.54-10.876,5.31-18.349,5.31c-7.475,0-13.531-1.809-18.172-5.428c-4.643-3.617-7.198-8.771-7.67-15.458h13.924
		c0.236,3.227,1.416,5.744,3.54,7.552c2.124,1.811,5.015,2.714,8.673,2.714s6.567-0.806,8.732-2.419
		c2.162-1.611,3.245-3.756,3.245-6.431c0-2.673-1.299-4.758-3.895-6.254c-2.596-1.493-5.764-2.614-9.499-3.363
		c-3.737-0.747-7.475-1.611-11.21-2.596c-3.737-0.982-6.903-2.773-9.499-5.369C949.286,182.85,947.988,179.389,947.988,175.062z"/>
	<path d="M1042.21,222.498c-9.48,0-17.287-3.086-23.423-9.263c-6.137-6.174-9.204-14.278-9.204-24.308
		c0-10.03,3.165-18.132,9.499-24.308c6.331-6.175,14.219-9.263,23.658-9.263c9.44,0,17.326,3.088,23.659,9.263
		c6.332,6.176,9.499,14.259,9.499,24.249c0,9.991-3.245,18.094-9.734,24.308C1059.674,219.391,1051.689,222.498,1042.21,222.498z
		 M1056.193,205.27c3.933-3.933,5.9-9.399,5.9-16.402c0-7.001-1.908-12.449-5.723-16.343c-3.817-3.894-8.438-5.841-13.865-5.841
		c-5.429,0-9.991,1.947-13.688,5.841c-3.698,3.894-5.546,9.363-5.546,16.402c0,7.041,1.809,12.508,5.428,16.402
		c3.618,3.894,8.122,5.841,13.512,5.841C1047.597,211.169,1052.258,209.204,1056.193,205.27z"/>
	<path d="M1116.49,156.417v10.974h-12.036v54.044h-13.57v-54.044h-7.67v-10.974h7.67v-4.602c0-7.473,1.985-12.921,5.959-16.343
		c3.972-3.422,10.207-5.133,18.703-5.133v11.21c-4.092,0-6.962,0.767-8.614,2.301c-1.651,1.534-2.478,4.189-2.478,7.965v4.602
		H1116.49z"/>
	<path d="M1159.912,167.392h-15.813v35.99c0,2.439,0.569,4.189,1.711,5.251c1.14,1.062,3.087,1.593,5.841,1.593h8.261v11.21h-10.62
		c-12.509,0-18.763-6.018-18.763-18.054v-35.99h-7.67v-10.974h7.67v-16.166h13.57v16.166h15.813V167.392z"/>
</g>
<g>
</g>
<g>
</g>
<g>
</g>
<g>
</g>
<g>
</g>
<g>
</g>
</svg>
