<svg id="visual" viewBox="0 0 960 540" width="960" height="540" xmlns="http://www.w3.org/2000/svg" xmlns:xlink="http://www.w3.org/1999/xlink" version="1.1"><path d="M0 206L32 201.5C64 197 128 188 192 198C256 208 320 237 384 235.2C448 233.3 512 200.7 576 198.8C640 197 704 226 768 224.3C832 222.7 896 190.3 928 174.2L960 158L960 0L928 0C896 0 832 0 768 0C704 0 640 0 576 0C512 0 448 0 384 0C320 0 256 0 192 0C128 0 64 0 32 0L0 0Z" fill="#001220"></path><path d="M0 411L32 414.7C64 418.3 128 425.7 192 430.2C256 434.7 320 436.3 384 428.2C448 420 512 402 576 396.7C640 391.3 704 398.7 768 402.3C832 406 896 406 928 406L960 406L960 156L928 172.2C896 188.3 832 220.7 768 222.3C704 224 640 195 576 196.8C512 198.7 448 231.3 384 233.2C320 235 256 206 192 196C128 186 64 195 32 199.5L0 204Z" fill="#777e87"></path><path d="M0 541L32 541C64 541 128 541 192 541C256 541 320 541 384 541C448 541 512 541 576 541C640 541 704 541 768 541C832 541 896 541 928 541L960 541L960 404L928 404C896 404 832 404 768 400.3C704 396.7 640 389.3 576 394.7C512 400 448 418 384 426.2C320 434.3 256 432.7 192 428.2C128 423.7 64 416.3 32 412.7L0 409Z" fill="#ffffff"></path></svg>