<svg xmlns="http://www.w3.org/2000/svg" xmlns:xlink="http://www.w3.org/1999/xlink" width="16" zoomAndPan="magnify" viewBox="0 0 75 74.999997" height="16" preserveAspectRatio="xMidYMid meet" version="1.0"><defs><clipPath id="dacbf1f870"><path d="M 7.058594 14 L 67.808594 14 L 67.808594 61 L 7.058594 61 Z M 7.058594 14 " clip-rule="nonzero"/></clipPath></defs><g clip-path="url(#dacbf1f870)"><path fill="#000000" d="M 67.46875 23.695312 C 67.484375 24.722656 67.121094 25.585938 66.375 26.289062 L 38.171875 53.890625 L 32.871094 59.070312 C 32.144531 59.800781 31.261719 60.15625 30.230469 60.140625 C 29.195312 60.160156 28.3125 59.804688 27.578125 59.070312 L 22.28125 53.890625 L 8.175781 40.085938 C 7.433594 39.382812 7.066406 38.519531 7.082031 37.496094 C 7.082031 36.476562 7.445312 35.613281 8.175781 34.902344 L 13.472656 29.71875 C 14.203125 28.988281 15.085938 28.628906 16.121094 28.648438 C 17.164062 28.648438 18.042969 29.003906 18.773438 29.71875 L 30.226562 40.960938 L 55.777344 15.917969 C 56.511719 15.183594 57.394531 14.828125 58.429688 14.851562 C 59.46875 14.851562 60.351562 15.203125 61.078125 15.917969 L 66.375 21.101562 C 67.121094 21.804688 67.484375 22.671875 67.46875 23.695312 Z M 67.46875 23.695312 " fill-opacity="1" fill-rule="nonzero"/></g></svg>