<svg xmlns="http://www.w3.org/2000/svg" xmlns:xlink="http://www.w3.org/1999/xlink" width="16" zoomAndPan="magnify" viewBox="0 0 75 75" height="16" preserveAspectRatio="xMidYMid meet" version="1.0"><defs><clipPath id="85414a13af"><path d="M 7.058594 14 L 67.808594 14 L 67.808594 61 L 7.058594 61 Z M 7.058594 14 " clip-rule="nonzero"/></clipPath></defs><g clip-path="url(#85414a13af)"><path fill="#32d743" d="M 67.785156 23.679688 C 67.800781 24.703125 67.433594 25.566406 66.6875 26.269531 L 38.335938 53.832031 L 33.007812 59.007812 C 32.273438 59.734375 31.390625 60.089844 30.351562 60.070312 C 29.3125 60.09375 28.421875 59.738281 27.6875 59.007812 L 22.359375 53.832031 L 8.179688 40.046875 C 7.433594 39.34375 7.066406 38.480469 7.082031 37.460938 C 7.082031 36.445312 7.449219 35.582031 8.179688 34.871094 L 13.507812 29.695312 C 14.242188 28.964844 15.128906 28.609375 16.167969 28.625 C 17.214844 28.625 18.101562 28.984375 18.835938 29.695312 L 30.347656 40.921875 L 56.035156 15.914062 C 56.769531 15.179688 57.660156 14.828125 58.699219 14.847656 C 59.742188 14.847656 60.632812 15.199219 61.359375 15.914062 L 66.6875 21.089844 C 67.4375 21.792969 67.800781 22.65625 67.785156 23.679688 Z M 67.785156 23.679688 " fill-opacity="1" fill-rule="nonzero"/></g></svg>